HIERARCHY
ROOT Hips
{
	OFFSET -0.001795 -0.223333 0.028219
	CHANNELS 6 Xposition Yposition Zposition Zrotation Yrotation Xrotation 
	JOINT LeftUpLeg
	{
		OFFSET 0.069520 -0.091406 -0.006815
		CHANNELS 3 Zrotation Yrotation Xrotation
		JOINT LeftLeg
		{
			OFFSET 0.034277 -0.375199 -0.004496
			CHANNELS 3 Zrotation Yrotation Xrotation
			JOINT LeftFoot
			{
				OFFSET -0.013596 -0.397961 -0.043693
				CHANNELS 3 Zrotation Yrotation Xrotation
				JOINT LeftToe
				{
					OFFSET 0.026358 -0.055791 0.119288
					CHANNELS 3 Zrotation Yrotation Xrotation
					End Site
					{
						OFFSET 0.000000 0.000000 0.000000
					}
				}
			}
		}
	}
	JOINT RightUpLeg
	{
		OFFSET -0.067670 -0.090522 -0.004320
		CHANNELS 3 Zrotation Yrotation Xrotation
		JOINT RightLeg
		{
			OFFSET -0.038290 -0.382569 -0.008850
			CHANNELS 3 Zrotation Yrotation Xrotation
			JOINT RightFoot
			{
				OFFSET 0.015774 -0.398415 -0.042312
				CHANNELS 3 Zrotation Yrotation Xrotation
				JOINT RightToe
				{
					OFFSET -0.025372 -0.048144 0.123348
					CHANNELS 3 Zrotation Yrotation Xrotation
					End Site
					{
						OFFSET 0.000000 0.000000 0.000000
					}
				}
			}
		}
	}
	JOINT Spine
	{
		OFFSET -0.002533 0.108963 -0.026696
		CHANNELS 3 Zrotation Yrotation Xrotation
		JOINT Spine1
		{
			OFFSET 0.005487 0.135180 0.001092
			CHANNELS 3 Zrotation Yrotation Xrotation
			JOINT Spine2
			{
				OFFSET 0.001457 0.052922 0.025425
				CHANNELS 3 Zrotation Yrotation Xrotation
				JOINT Neck
				{
					OFFSET -0.002778 0.213870 -0.042857
					CHANNELS 3 Zrotation Yrotation Xrotation
					JOINT Head
					{
						OFFSET 0.005152 0.064970 0.051349
						CHANNELS 3 Zrotation Yrotation Xrotation
						End Site
						{
							OFFSET 0.000000 0.000000 0.000000
						}
					}
				}
				JOINT LeftShoulder
				{
					OFFSET 0.078845 0.121749 -0.034090
					CHANNELS 3 Zrotation Yrotation Xrotation
					JOINT LeftArm
					{
						OFFSET 0.090977 0.030469 -0.008868
						CHANNELS 3 Zrotation Yrotation Xrotation
						JOINT LeftForeArm
						{
							OFFSET 0.259612 -0.012772 -0.027456
							CHANNELS 3 Zrotation Yrotation Xrotation
							JOINT LeftHand
							{
								OFFSET 0.249234 0.008986 -0.001171
								CHANNELS 3 Zrotation Yrotation Xrotation
								End Site
								{
									OFFSET 0.000000 0.000000 0.000000
								}
							}
						}
					}
				}
				JOINT RightShoulder
				{
					OFFSET -0.081759 0.118833 -0.038615
					CHANNELS 3 Zrotation Yrotation Xrotation
					JOINT RightArm
					{
						OFFSET -0.096012 0.032551 -0.009143
						CHANNELS 3 Zrotation Yrotation Xrotation
						JOINT RightForeArm
						{
							OFFSET -0.253742 -0.013329 -0.021401
							CHANNELS 3 Zrotation Yrotation Xrotation
							JOINT RightHand
							{
								OFFSET -0.255298 0.007772 -0.005559
								CHANNELS 3 Zrotation Yrotation Xrotation
								End Site
								{
									OFFSET 0.000000 0.000000 0.000000
								}
							}
						}
					}
				}
			}
		}
	}
}
MOTION
Frames: 16
Frame Time: 0.050000
0.000000 0.978107 0.000000 -0.756674 0.437213 -0.225958 0.181308 0.386338 4.366210 -0.110768 0.122681 -3.348293 1.405604 9.463242 22.384184 0.000000 0.000000 0.000000 0.924101 -0.455165 3.983872 -0.240670 -0.107527 -3.199962 0.946582 -6.584436 23.231135 0.000000 0.000000 0.000000 1.972299 -0.398356 6.571016 0.239635 0.687003 -29.275822 -1.527852 1.274291 31.318209 3.123604 -1.102548 -15.860556 0.000000 0.000000 0.000000 4.608471 6.368777 -1.858760 0.368402 -10.388302 -0.692990 3.354801 -5.360988 0.017359 0.000000 0.000000 0.000000 -7.526997 -7.740880 -2.274806 3.064468 7.764665 -0.804895 0.368730 7.824561 0.226608 0.000000 0.000000 0.000000 
0.000011 0.977895 -0.000255 -0.398748 0.024481 -0.846878 -0.422820 0.556142 5.807838 -0.130811 0.153979 -4.245347 1.993762 10.021819 21.594064 0.000000 0.000000 0.000000 1.090287 -0.528265 4.591153 -0.788757 -0.094357 -3.841079 0.018203 -8.379358 24.500688 0.000000 0.000000 0.000000 2.064169 -0.428794 7.088811 0.756469 0.577036 -29.093083 -1.606823 1.654462 31.508341 3.035517 -1.102932 -14.983477 0.000000 0.000000 0.000000 5.318890 5.146022 -1.404797 0.455163 -9.068392 -0.575944 1.925629 -4.274414 0.064980 0.000000 0.000000 0.000000 -9.569475 -8.209560 -2.288586 3.998839 8.828188 -0.920609 -0.018777 7.220507 0.197794 0.000000 0.000000 0.000000 
-0.000041 0.979259 -0.000260 -0.371413 0.573586 -0.568548 0.305067 0.461683 5.294882 -0.589518 0.188094 -4.305639 0.299375 8.145360 22.913762 0.000000 0.000000 0.000000 1.032098 -0.500042 4.343187 -0.559236 -0.108268 -3.787794 -0.301199 -8.788335 24.737295 0.000000 0.000000 0.000000 1.990243 -0.392725 6.510212 0.506065 0.618301 -28.568887 -1.523073 0.910496 31.265360 2.480365 -0.703084 -15.435469 0.000000 0.000000 0.000000 6.210166 4.271884 -1.093415 -1.447526 -8.640157 -0.713410 4.293259 -3.674696 -0.005217 0.000000 0.000000 0.000000 -9.154532 -7.286589 -2.020471 3.882400 8.487124 -0.902898 -4.176905 7.340075 0.029524 0.000000 0.000000 0.000000 
-0.000071 0.978974 -0.000240 -0.691346 0.354119 -0.900964 0.058505 0.530442 5.888606 -0.403413 0.198485 -5.082739 2.167552 10.688819 23.633092 0.000000 0.000000 0.000000 1.516937 -0.614922 5.104259 -0.424084 -0.148416 -4.481721 -0.871792 -9.633000 24.579628 0.000000 0.000000 0.000000 2.547074 -0.516523 7.927134 0.033447 0.748644 -30.301546 -1.318362 1.517154 31.787012 2.549027 -0.626680 -15.988732 0.000000 0.000000 0.000000 7.006378 4.494524 -1.085437 -0.864728 -9.608601 -0.725858 4.051680 -3.308412 0.000609 0.000000 0.000000 0.000000 -9.838045 -7.991043 -2.252267 4.007347 7.942699 -0.903986 -3.352636 7.676333 0.068036 0.000000 0.000000 0.000000 
-0.000087 0.978038 -0.000345 -0.802878 0.721480 -0.611983 0.181559 0.521533 5.915588 -0.448362 0.218053 -5.683330 2.175965 10.676437 23.205882 0.000000 0.000000 0.000000 1.637527 -0.578451 4.699395 -0.857609 -0.127531 -4.666761 -0.298878 -8.925477 25.570012 0.000000 0.000000 0.000000 2.601582 -0.505160 7.623292 0.006383 0.743222 -29.705606 -1.602060 1.555323 30.989093 2.979221 -0.938216 -15.479255 0.000000 0.000000 0.000000 8.457504 3.821097 -0.747261 -2.112122 -9.012643 -0.784448 4.050880 -2.956425 0.001952 0.000000 0.000000 0.000000 -10.095770 -7.629429 -2.141360 4.348399 7.383060 -0.902965 -3.214862 7.931826 0.077990 0.000000 0.000000 0.000000 
-0.000065 0.977132 -0.000378 -0.713319 1.094288 -0.783314 -0.095961 0.554744 6.118723 -0.259062 0.202856 -5.564616 2.318383 10.758883 22.330992 0.000000 0.000000 0.000000 1.865121 -0.631351 5.022298 -1.072516 -0.118060 -4.776909 -1.075779 -9.879851 25.082463 0.000000 0.000000 0.000000 2.492020 -0.547385 8.409742 0.179389 0.717355 -29.929852 -1.749383 1.285408 30.704119 2.901706 -0.888576 -15.460012 0.000000 0.000000 0.000000 8.601588 4.488315 -0.918003 -1.967349 -9.008953 -0.770139 3.941753 -3.305567 0.003393 0.000000 0.000000 0.000000 -10.805862 -7.675299 -2.102697 4.594768 6.837006 -0.902773 -3.383556 8.179460 0.071017 0.000000 0.000000 0.000000 
-0.000086 0.977338 -0.000421 -0.722988 1.256886 -0.974943 0.020143 0.536905 6.021007 -0.303149 0.190908 -5.092086 2.072085 10.470121 22.362293 0.000000 0.000000 0.000000 1.918113 -0.635996 5.034819 -1.119123 -0.096490 -4.413918 -1.176078 -9.995786 25.094594 0.000000 0.000000 0.000000 2.468682 -0.562778 8.689214 0.329222 0.690055 -29.929503 -1.841856 1.227995 30.507490 3.066288 -1.053650 -14.990447 0.000000 0.000000 0.000000 8.293714 4.581260 -0.953376 -2.005013 -9.169242 -0.779144 4.143865 -3.160136 -0.001062 0.000000 0.000000 0.000000 -10.703222 -7.703855 -2.115615 4.379640 6.586715 -0.872147 -2.834021 8.639804 0.098521 0.000000 0.000000 0.000000 
-0.000084 0.977858 -0.000327 -0.811851 1.294658 -1.199294 0.100569 0.534815 6.064294 -0.126071 0.161059 -4.509195 1.726234 9.918632 21.838237 0.000000 0.000000 0.000000 2.065414 -0.665269 5.204658 -1.074003 -0.077772 -3.975501 -1.314058 -10.063363 24.413871 0.000000 0.000000 0.000000 2.410091 -0.559069 8.730626 0.431020 0.668458 -29.694050 -1.937974 1.252410 30.511398 3.098929 -1.198937 -13.839076 0.000000 0.000000 0.000000 8.289114 4.819915 -1.015533 -1.960394 -8.869593 -0.757972 4.070218 -3.484733 -0.001830 0.000000 0.000000 0.000000 -10.778731 -8.072855 -2.215649 4.186682 6.526439 -0.851847 -1.890362 8.986022 0.151673 0.000000 0.000000 0.000000 
-0.000089 0.977689 -0.000299 -0.858971 1.447446 -1.202254 0.127985 0.536443 6.120889 0.026292 0.149294 -4.469342 1.460053 9.497060 21.398284 0.000000 0.000000 0.000000 2.264813 -0.670952 5.140858 -1.222574 -0.050360 -3.657607 -1.501402 -10.215560 23.896295 0.000000 0.000000 0.000000 2.373994 -0.546254 8.562931 0.384248 0.677082 -29.625310 -1.994242 1.276233 30.710197 3.286660 -1.402949 -13.200493 0.000000 0.000000 0.000000 8.271760 4.926919 -1.038222 -1.599739 -8.688161 -0.716781 3.693791 -3.700967 0.006714 0.000000 0.000000 0.000000 -10.678365 -8.303379 -2.305332 3.909051 6.300961 -0.820266 -1.629644 9.070589 0.167396 0.000000 0.000000 0.000000 
-0.000054 0.978075 -0.000290 -0.857966 1.135349 -1.329429 -0.071649 0.580548 6.435896 0.139900 0.145295 -4.571675 1.857013 9.932345 21.161119 0.000000 0.000000 0.000000 2.458085 -0.697927 5.270882 -1.331745 -0.040368 -3.615453 -1.830594 -10.721592 23.662795 0.000000 0.000000 0.000000 2.403722 -0.553692 8.675544 0.119502 0.726654 -29.840976 -1.747904 1.469747 31.007590 3.272639 -1.440788 -12.790332 0.000000 0.000000 0.000000 8.393047 5.229581 -1.125923 -1.629418 -8.648751 -0.720518 3.316500 -4.129836 0.017901 0.000000 0.000000 0.000000 -10.795140 -8.872041 -2.463466 3.791402 6.683083 -0.828101 -1.367214 9.243590 0.185340 0.000000 0.000000 0.000000 
-0.000037 0.978460 -0.000357 -0.840297 1.022406 -1.344194 -0.051914 0.576897 6.397465 0.057272 0.144761 -4.387794 1.853886 9.892837 21.072751 0.000000 0.000000 0.000000 2.519830 -0.697257 5.237089 -1.412046 -0.020048 -3.339817 -1.839645 -10.669434 23.167343 0.000000 0.000000 0.000000 2.446856 -0.560784 8.743366 0.046463 0.736795 -29.688776 -1.743212 1.538770 30.824867 3.400067 -1.556336 -12.642425 0.000000 0.000000 0.000000 8.216821 5.279830 -1.151141 -1.604073 -8.399686 -0.702883 3.184563 -4.689206 0.022169 0.000000 0.000000 0.000000 -10.803784 -9.044345 -2.504148 3.630768 6.709913 -0.812828 -1.269896 9.918411 0.202318 0.000000 0.000000 0.000000 
-0.000021 0.978917 -0.000398 -0.857810 1.083561 -1.315935 -0.009217 0.564621 6.298814 0.112140 0.128828 -4.034735 1.575118 9.415881 20.549430 0.000000 0.000000 0.000000 2.586184 -0.696449 5.193179 -1.464507 -0.000062 -3.042310 -1.794735 -10.490627 22.612591 0.000000 0.000000 0.000000 2.444503 -0.556241 8.666671 0.042304 0.732271 -29.396308 -1.800455 1.425454 30.520829 3.451742 -1.652380 -12.244509 0.000000 0.000000 0.000000 7.999702 5.001812 -1.088369 -1.730334 -8.067453 -0.693591 3.361241 -5.057045 0.015066 0.000000 0.000000 0.000000 -10.882861 -8.843977 -2.425907 3.534849 6.606146 -0.795606 -1.159202 10.162168 0.212452 0.000000 0.000000 0.000000 
-0.000017 0.979142 -0.000426 -0.922338 1.028335 -1.381214 -0.010637 0.566355 6.313534 0.239963 0.113877 -3.875476 1.568665 9.376569 20.441213 0.000000 0.000000 0.000000 2.649650 -0.699965 5.191822 -1.427744 0.007585 -2.836589 -1.789509 -10.457857 22.421474 0.000000 0.000000 0.000000 2.443222 -0.560299 8.739660 0.028388 0.733765 -29.372171 -1.812005 1.491663 30.342684 3.634929 -1.808966 -12.093173 0.000000 0.000000 0.000000 7.855692 4.785587 -1.031441 -1.754123 -7.934523 -0.686925 3.651008 -5.349252 0.001102 0.000000 0.000000 0.000000 -10.842995 -8.829645 -2.424270 3.482001 6.640139 -0.790925 -1.266162 10.149812 0.206056 0.000000 0.000000 0.000000 
-0.000010 0.979015 -0.000465 -0.939968 0.699287 -1.575112 -0.144898 0.590580 6.451481 0.376562 0.096200 -3.677909 1.878996 9.736040 20.375358 0.000000 0.000000 0.000000 2.707515 -0.729006 5.408858 -1.405319 0.011475 -2.710636 -1.835722 -10.485884 21.851348 0.000000 0.000000 0.000000 2.519572 -0.569411 8.838480 -0.130279 0.764983 -29.379905 -1.748423 1.693626 30.373370 3.796417 -1.960139 -11.903505 0.000000 0.000000 0.000000 7.894981 4.490779 -0.947904 -1.923100 -7.738843 -0.691800 3.783912 -5.690751 -0.007080 0.000000 0.000000 0.000000 -10.701345 -8.966280 -2.467970 3.486016 6.923096 -0.802872 -1.335871 10.350504 0.205112 0.000000 0.000000 0.000000 
0.000019 0.978917 -0.000481 -0.890785 0.410711 -1.629004 -0.273585 0.613044 6.571575 0.371772 0.094822 -3.635281 2.126419 9.987294 20.162628 0.000000 0.000000 0.000000 2.681148 -0.731432 5.453247 -1.324997 0.014298 -2.508609 -1.940955 -10.582596 21.197248 0.000000 0.000000 0.000000 2.623494 -0.577661 8.868109 -0.289176 0.792071 -29.312243 -1.730455 1.914223 30.254618 3.959812 -2.105369 -11.706989 0.000000 0.000000 0.000000 7.674778 4.276398 -0.899180 -1.775268 -7.619124 -0.670228 3.624516 -5.798974 -0.000639 0.000000 0.000000 0.000000 -10.237823 -8.917303 -2.486610 3.223130 7.128050 -0.787830 -1.540144 10.413895 0.192025 0.000000 0.000000 0.000000 
0.000039 0.978683 -0.000514 -0.894090 0.222750 -1.666815 -0.450175 0.624601 6.550954 0.418434 0.082999 -3.419990 2.622263 10.581068 19.862426 0.000000 0.000000 0.000000 2.768189 -0.743516 5.509552 -1.316220 0.020509 -2.363244 -2.110793 -10.768578 20.586629 0.000000 0.000000 0.000000 2.674400 -0.576210 8.797768 -0.459743 0.817419 -29.129686 -1.699215 2.076129 30.114815 4.198907 -2.280030 -11.740715 0.000000 0.000000 0.000000 7.474578 3.991889 -0.825553 -1.484576 -7.560165 -0.637657 3.597796 -5.856950 -0.000527 0.000000 0.000000 0.000000 -9.853540 -8.908244 -2.510773 3.011967 7.187792 -0.771147 -1.562588 10.638646 0.193555 0.000000 0.000000 0.000000 
